<svg width="60" height="53" viewBox="0 0 60 53" fill="none" xmlns="http://www.w3.org/2000/svg">
<path fill-rule="evenodd" clip-rule="evenodd" d="M22.7666 30.5358C20.4158 24.1823 22.1036 16.813 25.459 11.0862C28.0509 6.65604 32.1699 3.09029 36.6103 0.583456C37.1729 0.475403 37.7556 0.432182 38.3182 0.497014C39.9256 0.648288 41.4928 1.23177 42.5376 2.44197C40.9101 3.04707 39.3228 3.78183 37.8158 4.5382C34.1389 6.39671 30.8237 9.33575 28.1715 12.6422C24.4343 17.3101 22.0835 24.2039 22.7666 30.5358ZM20.697 15.43C21.2395 12.1236 22.4451 8.99005 24.4141 6.37517C25.5192 4.88403 26.8453 3.69545 28.1915 2.52848C29.8592 1.72888 31.6675 1.38311 33.4557 1.70727C33.6567 1.59922 33.8576 1.49117 34.0585 1.40472C30.261 3.82511 26.986 7.00187 24.4543 11.2592C20.8779 17.2885 19.391 26.5379 23.1885 32.8698C23.1885 32.9346 23.2086 32.9994 23.2287 33.0643C19.9134 28.029 19.7125 21.3945 20.697 15.43ZM17.5628 19.5579C17.3016 25.5656 18.1656 35.2904 24.6555 37.3002C24.6153 37.0841 24.5751 36.8464 24.555 36.6086C24.3541 36.2196 24.1732 35.8307 24.0125 35.4417C23.9321 35.4201 23.8317 35.3768 23.7513 35.2904C19.2908 30.1255 18.688 22.605 19.773 15.9273C20.5968 10.9352 22.7869 6.87243 26.0016 3.60922C24.1531 3.00413 22.4453 4.27915 21.2196 5.98639C20.4963 7.34786 19.8333 8.75255 19.331 10.2869C18.3665 13.2692 17.7035 16.4027 17.5628 19.5579ZM25.6599 29.7147C25.0571 33.4317 24.3137 39.2233 28.2116 41.1251C31.2255 42.5946 34.8622 43.3077 38.1172 43.848C44.4061 44.8853 51.0165 44.8637 56.7228 41.7302C57.706 40.4413 58.1371 38.3313 58.5012 36.5495L58.5013 36.5492C58.6133 36.0008 58.719 35.4835 58.8325 35.0309C59.5357 32.1783 59.9577 29.2824 59.9979 26.3218C60.0782 21.0056 57.7676 16.1 55.3565 11.605C55.2404 11.3888 55.126 11.1712 55.0117 10.9539C54.0978 9.21612 53.1909 7.49168 51.4586 6.56968C51.3318 6.50149 51.1925 6.44674 51.0604 6.39484L51.0601 6.39475C51.0249 6.38089 50.9901 6.36723 50.9563 6.35358C45.6117 6.78579 40.5484 8.14726 36.0276 11.7778C30.7031 16.0784 26.8253 22.648 25.6599 29.7147ZM21.1793 36.0898C17.221 33.8855 15.1515 29.0231 14.6894 24.1607C14.4081 21.3081 14.6492 18.3475 14.8903 15.4732C14.8999 15.3193 14.9139 15.1604 14.9282 14.999C14.9441 14.8206 14.9601 14.6391 14.9707 14.4575L14.9908 14.4359C15.5534 11.713 16.9598 9.4871 19.1499 8.10402C17.5224 12.1884 16.7589 16.7915 16.6585 20.9191C16.558 25.8896 17.4421 32.7185 21.1793 36.0898ZM15.9955 32.2862C14.2474 29.9739 12.6601 27.1861 11.5751 24.3119C11.0929 25.4788 10.6911 26.6242 10.9121 27.8128C12.0775 29.8658 13.8054 31.4218 15.9955 32.2862ZM17.3218 33.8208C17.2615 33.7992 17.2012 33.7775 17.1611 33.7343C17.0362 33.6001 16.9272 33.4658 16.806 33.3164L16.7592 33.2589C14.7098 32.7402 12.9215 31.5949 11.5955 29.9957C11.4749 30.536 11.4146 31.0762 11.5352 31.6165C13.3837 33.086 15.4331 34.0585 17.8241 34.4043C17.6433 34.2098 17.4826 34.0153 17.3218 33.8208L17.3218 33.8208ZM24.8162 38.0131L24.8162 38.0131C24.8212 38.0401 24.8263 38.0671 24.8363 38.0995C21.8626 39.0072 18.6478 38.8127 15.7344 37.7322C14.3682 37.2351 13.1827 36.4571 12.0977 35.5495C11.7762 34.7931 12.0173 33.9071 12.2785 33.021C14.127 34.2961 16.3372 35.0308 18.5273 35.0957C20.0342 36.522 21.9028 37.4944 24.0326 37.7538C24.2536 37.8186 24.4746 37.8834 24.6957 37.9267H24.7961C24.8062 37.9591 24.8112 37.9861 24.8162 38.0131L24.8162 38.0131ZM14.3276 27.186C14.4079 27.575 14.5084 27.964 14.6089 28.353C14.2874 27.7911 13.986 27.2292 13.6846 26.6457C13.0416 25.3491 12.5192 24.0092 12.0169 22.6694C11.8964 21.9778 11.8562 21.2863 11.9366 20.5515C12.1375 18.4553 12.9211 16.6832 14.1668 15.2786C13.7449 19.2333 13.5641 23.2097 14.3276 27.186ZM36.4498 44.2587C35.8934 44.1492 35.283 44.0503 34.6425 43.9465C31.7441 43.4769 28.2284 42.9072 26.3031 40.801C25.7204 40.1527 25.2985 39.4395 25.0172 38.6616C21.4809 39.6124 17.3017 39.3963 13.886 37.6891C15.5263 41.5942 18.0679 44.8621 21.1886 47.3354C16.8796 47.7771 12.6147 48.581 8.43896 49.7389H24.8599C25.0257 49.8272 25.1925 49.9136 25.3603 49.9981L5.88524 50.8879L0 52.3321H32.6803C39.7873 53.3622 48.4762 50.4101 53.0461 44.1507C53.0762 44.1399 53.1013 44.1291 53.1264 44.1183L53.1265 44.1182C53.1516 44.1074 53.1767 44.0966 53.2068 44.0858C47.8623 45.7498 42.0154 45.3609 36.4498 44.2587ZM28.9756 12.5559C26.4038 15.8407 24.4548 19.7306 23.7917 24.0095C23.2492 27.5537 23.5908 30.7737 24.4548 34.0585C24.495 32.9996 24.6155 31.9406 24.7361 30.9466C25.6202 23.3612 29.4377 16.0784 35.144 11.5186C38.8209 8.55795 43.5426 6.26723 48.3045 5.5973C47.6615 4.84092 46.9583 4.17099 46.1345 3.63073C45.4514 3.17691 44.728 2.93919 43.9846 2.87436C41.9955 3.43623 40.0465 4.12777 38.1578 5.14347C34.7019 7.04521 31.4871 9.33593 28.9756 12.5559Z" fill="url(#paint0_linear_207_122)"/>
<defs>
<linearGradient id="paint0_linear_207_122" x1="54.9446" y1="1.28227" x2="-1.88919" y2="49.3787" gradientUnits="userSpaceOnUse">
<stop stop-color="#FF1F00"/>
<stop offset="1" stop-color="#FFD600"/>
</linearGradient>
</defs>
</svg>
