<svg width="44" height="44" viewBox="0 0 44 44" fill="none" xmlns="http://www.w3.org/2000/svg">
<path d="M34.2598 2.22023L22.4191 14.0609C22.0344 14.4456 21.3967 14.4316 20.9948 14.0297L8.62351 1.65838C6.61409 -0.351034 3.42555 -0.420913 1.50232 1.50232C-0.420906 3.42554 -0.351027 6.61408 1.65839 8.6235L14.0297 20.9948C14.4316 21.3967 14.4456 22.0344 14.0609 22.4191L2.22023 34.2598C0.297003 36.183 0.366884 39.3715 2.3763 41.3809C4.38572 43.3904 7.57425 43.4602 9.49748 41.537L21.3382 29.6963C21.7228 29.3117 22.3605 29.3256 22.7624 29.7275L35.1337 42.0988C37.1432 44.1083 40.3317 44.1781 42.2549 42.2549C44.1782 40.3317 44.1083 37.1431 42.0989 35.1337L29.7275 22.7624C29.3256 22.3605 29.3117 21.7228 29.6963 21.3382L41.537 9.49748C43.4602 7.57425 43.3904 4.38571 41.3809 2.37629C39.3715 0.366877 36.183 0.296998 34.2598 2.22023Z" fill="black"/>
</svg>
